inDegrees=no
num_controls=7
num_derivatives=13
num_iterations=216
num_multipliers=7
num_parameters=0
num_slacks=7
num_states=26
objective=4.021065
objective_accelerations=0.550795
objective_balance=0.088409
objective_effort=0.465566
objective_height=2.833732
objective_ligament=0.082563
solver_duration=2345.147455
status=Solve_Succeeded
success=true
DataType=double
version=3
OpenSimVersion=4.4-2022-07-23-0e9fedc
endheader
time	/jointset/ground_pelvis/pelvis_tilt/value	/jointset/ground_pelvis/pelvis_tx/value	/jointset/ground_pelvis/pelvis_ty/value	/jointset/hip_l/hip_flexion_l/value	/jointset/hip_l/hip_adduction_l/value	/jointset/hip_l/hip_rotation_l/value	/jointset/back/lumbar_extension/value	/jointset/patellofemoral_l/patellar_flexion_l/value	/jointset/knee_l/knee_flexion_l/value	/jointset/knee_l/knee_adduction_l/value	/jointset/knee_l/knee_rotation_l/value	/jointset/ankle_l/ankle_angle_l/value	/jointset/subtalar_l/subtalar_angle_l/value	/jointset/ground_pelvis/pelvis_tilt/speed	/jointset/ground_pelvis/pelvis_tx/speed	/jointset/ground_pelvis/pelvis_ty/speed	/jointset/hip_l/hip_flexion_l/speed	/jointset/hip_l/hip_adduction_l/speed	/jointset/hip_l/hip_rotation_l/speed	/jointset/back/lumbar_extension/speed	/jointset/patellofemoral_l/patellar_flexion_l/speed	/jointset/knee_l/knee_flexion_l/speed	/jointset/knee_l/knee_adduction_l/speed	/jointset/knee_l/knee_rotation_l/speed	/jointset/ankle_l/ankle_angle_l/speed	/jointset/subtalar_l/subtalar_angle_l/speed	/forceset/tau_hip_flexion_l	/forceset/tau_hip_adduction_l	/forceset/tau_hip_rotation_l	/forceset/tau_knee_flexion_l	/forceset/tau_ankle_angle_l	/forceset/tau_subtalar_angle_l	/forceset/tau_lumbar_extension	lambda_cid13_p0	lambda_cid13_p1	lambda_cid13_p2	lambda_cid13_p3	lambda_cid13_p4	lambda_cid13_p5	lambda_cid14_p0	/jointset/ground_pelvis/pelvis_tilt/accel	/jointset/ground_pelvis/pelvis_tx/accel	/jointset/ground_pelvis/pelvis_ty/accel	/jointset/hip_l/hip_flexion_l/accel	/jointset/hip_l/hip_adduction_l/accel	/jointset/hip_l/hip_rotation_l/accel	/jointset/back/lumbar_extension/accel	/jointset/patellofemoral_l/patellar_flexion_l/accel	/jointset/knee_l/knee_flexion_l/accel	/jointset/knee_l/knee_adduction_l/accel	/jointset/knee_l/knee_rotation_l/accel	/jointset/ankle_l/ankle_angle_l/accel	/jointset/subtalar_l/subtalar_angle_l/accel	gamma_cid13_p0	gamma_cid13_p1	gamma_cid13_p2	gamma_cid13_p3	gamma_cid13_p4	gamma_cid13_p5	gamma_cid14_p0
1	-0.4401898564078828	-0.02146569328518072	0.4630735050343671	2.094395102393195	-0.2364080553589908	0.1262070985760918	-0.4363323129985824	1.844055758976682	1.844055758976682	0.08264228457473877	0.1745328996315112	0.4363323129985824	0.1461469621934601	-0.0106237274355935	0.0003884004773479321	-0.003209579165308876	0.01667674562653249	0.0007070120562363364	0.006068858272541093	-7.774681124133903e-07	0.005632067346050088	0.005632067346050014	-0.003803860337426518	2.324094899044121e-07	-0.0002251585465804066	0.0009172788054924096	-0.3435373626245418	0.008017556860915952	-0.02331361235291547	-0.4455191266632276	-0.01536663151131253	0.01069439553376033	0.3055354568678165	-54.71518452911101	11.64440573253834	-9.921861100751132	27.60502140693134	-765.8458980668584	-57.52014145282535	-0.03417771302024419	0.1659873428659639	-0.4452741246579894	2.536040498597483	-6.901850528233117	-0.2850024115689408	-1.088380556664881	-0.001254123394900275	-7.183503237299648	-7.183503237299591	-1.274289657077209	0.01497892240196284	-0.8294741389192436	-0.7840551338465966	7.633437651859321e-11	3.220793643477883e-09	4.919527213594497e-09	1.484161672620865e-09	4.781500057179779e-10	9.871833578234189e-09	-3.295397233450047e-10
1.01	-0.4402876732120636	-0.02148404449628432	0.4631682433877778	2.094216486579779	-0.2364147097491121	0.126216066018807	-0.4363323023724956	1.843752993623593	1.843752993623593	0.08253841740841535	0.1745328946527761	0.4362888753719869	0.1461178928601578	-0.008917908227589829	-0.004054903268186371	0.02216141417112553	-0.05242709208255845	-0.002039043244508389	-0.004278257625458383	3.292719892199604e-06	-0.06619361342345402	-0.0661936134234539	-0.01696929717852217	-1.025185652796181e-06	-0.008471761524527209	-0.006735337929036791	-0.3438671581479421	0.008073666144776009	-0.02325910371012462	-0.4453799156026211	-0.0155691798085536	0.01069532875372556	0.3057939715147542	-54.78822677832125	11.6520748642837	-9.91769858896259	27.62542415461888	-765.9964930275446	-57.5049187097263	-0.03418508195733076	0.1761389494679798	-0.4432994970618394	2.538251175022666	-6.918122955002092	-0.2695723754623545	-1.008308154757352	0.001089198155859551	-7.18337398591225	-7.183373985912267	-1.337624637064086	-0.007629431049527099	-0.8233951951419769	-0.7564785882881307	4.85776760404556e-09	-5.22003281250027e-08	-5.754839963324114e-08	-9.449765526466413e-09	-1.100746349777709e-08	-1.590509053478759e-07	1.073907921841181e-08
1.02	-0.4403677798762241	-0.0215467169443554	0.4635168161593241	2.093346117736904	-0.2364488577494678	0.1261214760928643	-0.4363322738262766	1.842731716764983	1.842731716764983	0.08230290508579385	0.1745328868319677	0.4361627343903346	0.1460121746305038	-0.007081699431569944	-0.008475846916148874	0.04755730446181024	-0.1216698323018503	-0.004791709990657815	-0.01464261545905277	1.427238205667839e-06	-0.1380702337584167	-0.138070233758417	-0.0301328915971516	-3.360038811132329e-07	-0.0167640372188571	-0.01441250046484796	-0.3441969536713445	0.008129775428635983	-0.02320459506733261	-0.4452407045420144	-0.01577172810579418	0.01069626197369086	0.3060524861616898	-54.86340995279802	11.65756645599345	-9.910273091977972	27.69480976979961	-766.1721347567207	-57.47438263119609	-0.03422569008261869	0.192065260469207	-0.4408021051436296	2.541019889447544	-6.929631030273296	-0.2863247006498815	-1.091828943783863	-0.002441257333104544	-7.193691150391365	-7.193691150391435	-1.273921172583964	0.01536827778484024	-0.8386086821958633	-0.7889642941029922	1.19963669658697e-08	-1.063182311202682e-07	-1.18005235636956e-07	-2.799315746347475e-08	-2.232989960314787e-08	-3.189456889828278e-07	2.071929051134504e-08
1.03	-0.4404287276412837	-0.0216533974362908	0.4641193881399543	2.091782860742817	-0.2365105431784081	0.1259231234171049	-0.4363322715217061	1.840991596175352	1.840991596175352	0.08193589363467314	0.1745328843066367	0.435953249979869	0.1458295330176871	-0.005070868197533627	-0.01284747918496486	0.07295307428086015	-0.1909831519046972	-0.007544263882182222	-0.02502834534798553	-7.474607651269227e-07	-0.2099449668355543	-0.2099449668355543	-0.04326217452483002	-4.618974760927687e-07	-0.02515904095270502	-0.02212262032147271	-0.3443755807736205	0.008136998080312298	-0.02306180958407144	-0.4449713336953727	-0.01568552993292308	0.01075912503242277	0.3062310338155873	-54.81580644034349	11.59783232519695	-9.873224683822249	27.57476616613747	-766.097490169959	-57.52712451650381	-0.03428622879028875	0.2111420211952702	-0.4334373805535289	2.538246121882928	-6.932418411471235	-0.2695301965851768	-1.012002774977068	0.0009272532258644697	-7.183032984631702	-7.183032984631605	-1.331334432273467	-0.007690956355224789	-0.8438794600428223	-0.7630087152143331	1.915901904334994e-08	-1.604228359647867e-07	-1.78441550305537e-07	-4.661419699984967e-08	-3.365067063302759e-08	-4.787483506250129e-07	3.068839560378007e-08
